# File produced by Open Asset Import Library (http://www.assimp.sf.net)
# (assimp v3.2.202087883)

mtllib model_normalized.mtl

# 20 vertex positions
v -0.386358 -0.233753 0.235312
v 0.389516 -0.233753 -0.222866
v 0.389516 -0.233753 0.235312
v -0.386358 -0.233753 -0.222866
v 0.389516 0.054212 0.105211
v 0.389516 0.199944 0.235312
v -0.386358 0.054212 -0.222866
v -0.291562 -0.074615 -0.222866
v 0.389516 0.054212 -0.222866
v -0.386358 0.199944 0.235312
v -0.386358 0.054212 0.105211
v 0.286826 -0.074615 -0.222866
v 0.286826 0.054212 -0.222866
v 0.389516 0.199944 0.105211
v -0.386358 0.199944 0.105211
v -0.291562 0.054212 0.105211
v -0.291562 0.054212 -0.222866
v 0.286826 -0.074615 0.105211
v 0.286826 0.054212 0.105211
v -0.291562 -0.074615 0.105211

# 31 UV coordinates
vt 0 0 0
vt -2.9313 1.97917 0
vt -4.09375 0 0
vt 0 2.98077 0
vt -6.93229 0 0
vt 4.09375 0 0
vt 0 1.97917 0
vt 6.93229 0 0
vt 6.08529 1.09375 0
vt -4.09375 2.98077 0
vt -6.93229 2.98077 0
vt 2.9313 1.97917 0
vt 6.93229 1.97917 0
vt 0.917509 1.09375 0
vt 0.917509 0 0
vt 0 2.25485 0
vt -2.9313 2.98077 0
vt 0 3.14904 0
vt 6.93229 2.25485 0
vt 6.93229 3.14904 0
vt 2.9313 2.98077 0
vt 4.09375 2.98077 0
vt 6.08529 2.25485 0
vt 6.08529 1.97917 0
vt 6.08529 0 0
vt 0.917509 2.25485 0
vt 0.917509 1.97917 0
vt 6.93229 2.98077 0
vt 0 1.09375 0
vt 2.9313 1.09375 0
vt -2.9313 1.09375 0

# 6 vertex normals
vn 0 -0.0254 0
vn 0 0.0254 0
vn -0.0254 0 0
vn 0 -0 -0.0254
vn 0.0254 -0 -0
vn 0 0 0.0254

# Mesh 'mesh1_mesh1-geometry' with 38 faces
g mesh1_mesh1-geometry
usemtl material_0_24
f  1/1/1 2/1/1 3/1/1
f  2/1/1 1/1/1 4/1/1
f  3/1/2 2/1/2 1/1/2
f  4/1/2 1/1/2 2/1/2
f  3/1/3 5/1/3 2/1/3
f  3/1/4 1/1/4 6/1/4
f  4/1/5 7/1/5 1/1/5
f  2/1/6 8/1/6 4/1/6
f  9/1/3 2/1/3 5/1/3
f  6/1/3 5/1/3 3/1/3
f  10/1/4 6/1/4 1/1/4
f  11/1/5 1/1/5 7/1/5
f  7/1/6 4/1/6 8/1/6
f  8/1/6 2/1/6 12/1/6
f  9/1/6 12/1/6 2/1/6
f  9/1/1 5/1/1 13/1/1
f  14/1/3 5/1/3 6/1/3
f  10/1/1 15/1/1 6/1/1
f  10/1/5 1/1/5 15/1/5
f  15/1/5 1/1/5 11/1/5
f  11/1/1 7/1/1 16/1/1
f  17/1/6 7/1/6 8/1/6
f  12/1/1 18/1/1 8/1/1
f  13/1/6 12/1/6 9/1/6
f  19/1/1 13/1/1 5/1/1
f  14/1/6 15/1/6 5/1/6
f  14/1/1 6/1/1 15/1/1
f  11/1/6 16/1/6 15/1/6
f  17/1/1 16/1/1 7/1/1
f  17/1/3 8/1/3 16/1/3
f  20/1/1 8/1/1 18/1/1
f  12/1/5 13/1/5 18/1/5
f  19/1/5 18/1/5 13/1/5
f  5/1/6 15/1/6 19/1/6
f  19/1/6 15/1/6 16/1/6
f  20/1/3 16/1/3 8/1/3
f  20/1/6 18/1/6 16/1/6
f  19/1/6 16/1/6 18/1/6

# Mesh 'mesh1_mesh1-geometry' with 34 faces
g mesh1_mesh1-geometry
usemtl material_1_1_8
f  2/1/5 5/2/5 3/3/5
f  6/4/6 1/5/6 3/1/6
f  1/6/3 7/7/3 4/1/3
f  4/8/4 8/9/4 2/1/4
f  5/2/5 2/1/5 9/7/5
f  3/3/5 5/2/5 6/10/5
f  1/5/6 6/4/6 10/11/6
f  7/7/3 1/6/3 11/12/3
f  8/9/4 4/8/4 7/13/4
f  12/14/4 2/1/4 8/9/4
f  2/1/4 12/14/4 9/7/4
f  13/15/2 5/16/2 9/1/2
f  6/10/5 5/2/5 14/17/5
f  6/18/2 15/19/2 10/20/2
f  15/21/3 1/6/3 10/22/3
f  11/12/3 1/6/3 15/21/3
f  16/23/2 7/8/2 11/19/2
f  8/9/4 7/13/4 17/24/4
f  8/25/2 18/26/2 12/15/2
f  9/7/4 12/14/4 13/27/4
f  5/16/2 13/15/2 19/26/2
f  5/7/4 15/28/4 14/4/4
f  15/19/2 6/18/2 14/16/2
f  15/28/4 16/24/4 11/13/4
f  7/8/2 16/23/2 17/25/2
f  16/2/5 8/29/5 17/7/5
f  18/26/2 8/25/2 20/23/2
f  18/30/3 13/7/3 12/29/3
f  13/7/3 18/30/3 19/12/3
f  19/27/4 15/28/4 5/7/4
f  16/24/4 15/28/4 19/27/4
f  8/29/5 16/2/5 20/31/5
f  16/24/4 18/14/4 20/9/4
f  18/14/4 16/24/4 19/27/4

# Mesh 'mesh2_mesh2-geometry' with 4 faces
g mesh2_mesh2-geometry
usemtl material_0_0
l  3 2
l  1 3
l  2 4
l  4 1

