# File produced by Open Asset Import Library (http://www.assimp.sf.net)
# (assimp v3.2.202087883)

mtllib model_normalized.mtl

# 118 vertex positions
v -0.268854 0.022133 -0.102176
v -0.268854 0.021930 0.100743
v -0.268854 0.022133 0.100743
v -0.268854 0.021930 -0.102176
v 0.238445 0.022133 0.100743
v -0.268854 0.022340 -0.102176
v 0.238445 0.021930 -0.102176
v -0.268854 0.021732 0.100743
v 0.238445 0.021930 0.100743
v 0.238445 0.022340 0.100743
v -0.268854 0.022340 0.100743
v 0.238445 0.022133 -0.102176
v 0.238445 0.021732 -0.102176
v -0.268854 0.021732 -0.102176
v -0.268854 0.023734 -0.102176
v 0.238445 0.022340 -0.102176
v -0.268854 0.021542 0.100743
v 0.238445 0.021732 0.100743
v 0.238445 0.023734 0.100743
v -0.268854 0.023734 0.100743
v 0.238445 0.021542 -0.102176
v -0.268854 0.021542 -0.102176
v -0.268854 0.023884 -0.102176
v 0.238445 0.023734 -0.102176
v -0.268854 0.021363 0.100743
v 0.238445 0.021542 0.100743
v 0.238445 0.023884 0.100743
v -0.268854 0.023884 0.100743
v 0.238445 0.021363 -0.102176
v -0.268854 0.021363 -0.102176
v -0.268854 0.024103 -0.102176
v 0.238445 0.023884 -0.102176
v -0.268854 0.021191 0.100743
v 0.238445 0.021363 0.100743
v 0.238445 0.024103 0.100743
v -0.268854 0.024103 0.100743
v 0.238445 0.021191 -0.102176
v -0.268854 0.021191 -0.102176
v -0.268854 0.024305 -0.102176
v 0.238445 0.024103 -0.102176
v -0.260399 0.016421 -0.102176
v 0.238445 0.021191 0.100743
v 0.238445 0.024305 0.100743
v -0.268854 0.024305 0.100743
v 0.229990 0.016421 -0.102176
v -0.260399 0.016421 0.100743
v -0.268854 0.024485 -0.102176
v 0.238445 0.024305 -0.102176
v 0.229990 0.016421 0.100743
v -0.192759 0.016421 -0.051446
v 0.238445 0.024485 0.100743
v -0.268854 0.024485 0.100743
v 0.162350 0.016421 0.050013
v -0.192759 0.016421 0.050013
v -0.164012 0.016421 -0.051446
v -0.267163 0.024637 0.100743
v 0.238445 0.024485 -0.102176
v 0.140367 0.016421 0.050013
v 0.162350 0.016421 0.033103
v -0.192759 0.016421 -0.017626
v -0.065934 0.016421 -0.051446
v -0.164012 -0.110404 -0.051446
v -0.164012 0.016421 0.050013
v 0.238445 0.024637 0.100743
v -0.267163 0.024637 -0.102176
v 0.035525 0.016421 0.050013
v 0.140367 -0.110404 0.050013
v 0.162350 0.016421 -0.017626
v 0.162350 -0.091295 0.033103
v -0.192759 -0.095273 -0.017626
v -0.192759 0.016421 0.033103
v 0.035525 0.016421 -0.051446
v -0.164012 0.016421 -0.017626
v -0.192759 -0.110404 -0.051446
v -0.192759 -0.110404 0.050013
v -0.065934 0.016421 0.050013
v 0.238445 0.024637 -0.102176
v -0.267163 0.024758 0.100743
v 0.238445 0.024758 0.100743
v 0.140367 0.016421 -0.051446
v 0.162350 -0.110404 0.050013
v 0.140367 0.016421 0.033103
v 0.162350 0.016421 -0.051446
v -0.164012 0.016421 -0.017626
v 0.035525 0.016421 -0.017626
v -0.065934 0.016421 -0.017626
v -0.164012 -0.110404 0.050013
v 0.238445 0.024758 -0.102176
v -0.267163 0.024758 -0.102176
v 0.035525 0.016421 0.033103
v 0.140367 0.016421 -0.017626
v 0.162350 -0.110404 -0.051446
v 0.140367 -0.091295 0.033103
v -0.192759 -0.095273 0.033103
v -0.164012 -0.095273 -0.017626
v -0.164012 0.016421 0.033103
v -0.065934 0.016421 0.033103
v -0.142029 0.016421 -0.017626
v -0.164012 -0.095273 0.033103
v -0.267163 0.024844 0.100743
v 0.238445 0.024844 0.100743
v 0.238445 0.024844 -0.102176
v 0.140367 -0.091295 -0.017626
v 0.140367 -0.110404 -0.051446
v 0.162350 -0.091295 -0.017626
v -0.267163 0.024844 -0.102176
v 0.111620 0.016421 0.033103
v -0.142029 0.016421 0.033103
v -0.267163 0.024876 0.100743
v 0.238445 0.024876 0.100743
v 0.238445 0.024876 -0.102176
v -0.267163 0.024876 -0.102176
v 0.111620 0.016421 -0.017626
v 0.485330 -0.101949 0.286753
v 0.485330 -0.106176 0.286753
v 0.485330 -0.101949 -0.355825
v 0.485330 -0.106176 -0.355825
v -0.142029 0.016421 0.033103

# 295 UV coordinates
vt 7795.67 -892.769 0
vt 7796.46 -892.77 0
vt 7796.46 -892.769 0
vt 7795.67 -892.77 0
vt 5210.1 0.480695 0
vt 5212.07 0.481484 0
vt 5210.1 0.481484 0
vt 7796.46 -298.581 0
vt 7795.67 -298.58 0
vt 7795.67 -298.581 0
vt -5212.07 0.480695 0
vt -5210.1 0.480695 0
vt -5210.1 0.481484 0
vt 7795.67 -1475.19 0
vt 7796.46 -1475.19 0
vt 7796.46 -1475.19 0
vt 5212.07 0.480695 0
vt 5212.07 0.482283 0
vt 7796.46 -298.58 0
vt -5212.07 0.481484 0
vt -5210.1 0.482283 0
vt -5212.07 0.479926 0
vt 7795.67 -1475.19 0
vt 5210.1 0.479926 0
vt -7795.67 894.054 0
vt -7796.46 894.055 0
vt -7796.46 894.054 0
vt -7795.67 299.655 0
vt -7796.46 299.656 0
vt -7796.46 299.655 0
vt 5210.1 0.482283 0
vt 7796.46 0.482283 0
vt 7795.67 0.487695 0
vt 7795.67 0.482283 0
vt -5212.07 0.482283 0
vt -5210.1 0.479926 0
vt -7796.46 1476.67 0
vt -7795.67 1476.67 0
vt -7795.67 1476.67 0
vt -7795.67 894.055 0
vt 7795.67 -2038.17 0
vt 7796.46 -2038.17 0
vt 7796.46 -2038.17 0
vt 5212.07 0.479926 0
vt -7795.67 299.656 0
vt 5212.07 0.487695 0
vt 7796.46 0.487695 0
vt -5210.1 0.487695 0
vt -5212.07 0.479189 0
vt -7796.46 1476.67 0
vt 7795.67 -2038.17 0
vt 5210.1 0.479189 0
vt -7795.67 0.482283 0
vt -7796.46 0.487695 0
vt -7796.46 0.482283 0
vt 5210.1 0.487695 0
vt 7796.46 1087.05 0
vt 7795.67 1087.05 0
vt 7795.67 1087.05 0
vt -5212.07 0.487695 0
vt -5210.1 0.479189 0
vt -7796.46 2039.83 0
vt -7795.67 2039.83 0
vt -7795.67 2039.83 0
vt 7795.67 -2574.29 0
vt 7796.46 -2574.29 0
vt 7796.46 -2574.29 0
vt 5212.07 0.479189 0
vt -7795.67 0.487695 0
vt 5212.07 0.488277 0
vt 7796.46 1087.05 0
vt -5210.1 0.488277 0
vt -5212.07 0.478493 0
vt -7796.46 2039.83 0
vt 7795.67 -2574.29 0
vt 5210.1 0.478493 0
vt -7795.67 -1086.5 0
vt -7796.46 -1086.5 0
vt -7796.46 -1086.5 0
vt 5210.1 0.488277 0
vt 7796.46 1906.18 0
vt 7795.67 1906.18 0
vt 7795.67 1906.18 0
vt -5212.07 0.488277 0
vt -5210.1 0.478493 0
vt -7796.46 2576.1 0
vt -7795.67 2576.1 0
vt -7795.67 2576.1 0
vt 7795.67 -3091.39 0
vt 7796.46 -3091.39 0
vt 7796.46 -3091.39 0
vt 5212.07 0.478493 0
vt -7795.67 -1086.5 0
vt 5212.07 0.489127 0
vt 7796.46 1906.18 0
vt -5210.1 0.489127 0
vt -5212.07 0.477828 0
vt -7796.46 2576.1 0
vt 7795.67 -3091.39 0
vt 5210.1 0.477828 0
vt -7795.67 -1905.99 0
vt -7796.46 -1905.99 0
vt -7796.46 -1905.99 0
vt 5210.1 0.489127 0
vt 7796.46 2673.93 0
vt 7795.67 2673.93 0
vt 7795.67 2673.93 0
vt -5212.07 0.489127 0
vt -5210.1 0.477828 0
vt -7796.46 3093.33 0
vt -7795.67 3093.33 0
vt -7795.67 3093.33 0
vt 7795.67 -4480.61 0
vt 7796.46 -4480.58 0
vt 7795.67 -4480.58 0
vt 5212.07 0.477828 0
vt -7795.67 -1905.99 0
vt 5212.07 0.489911 0
vt 7796.46 2673.93 0
vt -5210.1 0.489911 0
vt -5212.04 0.459318 0
vt -7796.46 3093.33 0
vt 7796.46 -4480.61 0
vt -5210.13 0.459318 0
vt 5210.13 0.459318 0
vt -7795.67 -2674.1 0
vt -7796.46 -2674.1 0
vt -7796.46 -2674.1 0
vt 5210.1 0.489911 0
vt 7796.46 3369.59 0
vt 7795.67 3369.59 0
vt 7795.67 3369.59 0
vt -5212.07 0.489911 0
vt -7795.67 4482.76 0
vt -7796.46 4482.72 0
vt -7795.67 4482.72 0
vt -7796.46 4482.76 0
vt -5210.13 -7795.67 0
vt -5210.4 -7795.87 0
vt -5210.13 -7796.46 0
vt -5212.04 -7795.67 0
vt 5212.04 0.459318 0
vt -7795.67 -2674.1 0
vt 5212.07 0.490608 0
vt 7796.46 3369.59 0
vt -5210.1 0.490608 0
vt -5212.04 -7796.46 0
vt -5211.77 -7796.26 0
vt -5210.4 -7796.26 0
vt -5210.51 -7795.87 0
vt -7795.67 -3370.12 0
vt -7796.46 -3370.12 0
vt -7796.46 -3370.12 0
vt 5210.1 0.490608 0
vt 7796.46 3974.42 0
vt 7795.67 3974.42 0
vt 7796.46 3974.42 0
vt -5212.07 0.490608 0
vt -5211.69 -7796.26 0
vt -5211.77 -7796.17 0
vt -5210.4 -7795.98 0
vt -5210.89 -7795.87 0
vt -5210.51 -0.032808 0
vt -5210.4 0.459318 0
vt -5210.51 0.459318 0
vt -5210.51 -7796.26 0
vt -7795.67 -3370.12 0
vt 5212.07 0.491199 0
vt 7795.67 3974.42 0
vt 5210.1 0.491199 0
vt -5210.1 0.491199 0
vt -5211.28 -7796.26 0
vt 5211.69 -0.032808 0
vt 5211.77 0.459318 0
vt 5211.69 0.459318 0
vt -5211.77 -7795.96 0
vt -7796.17 0.459318 0
vt -7796.26 0.459318 0
vt -7796.17 0.041339 0
vt 7795.87 0.459318 0
vt 7795.98 0.025903 0
vt 7795.98 0.459318 0
vt -5210.4 -7796.17 0
vt -5211.28 -7795.87 0
vt -5210.51 -7795.97 0
vt -5210.4 -0.032808 0
vt -7795.97 0.459318 0
vt -7795.87 -0.032808 0
vt -7795.87 0.459318 0
vt 5210.4 -0.032808 0
vt 5210.51 0.459318 0
vt 5210.4 0.459318 0
vt -5210.89 -7796.26 0
vt -7795.67 -3975.29 0
vt -7796.46 -3975.29 0
vt -7795.67 -3975.29 0
vt -7796.46 -3975.29 0
vt 7796.46 4472.11 0
vt 7795.67 4472.11 0
vt 7796.46 4472.11 0
vt 5212.07 0.491668 0
vt -5212.07 0.491199 0
vt -5211.69 -7795.87 0
vt 5211.77 -0.032808 0
vt 7796.17 0.459318 0
vt 7796.26 -0.032808 0
vt 7796.26 0.459318 0
vt -5211.77 -7795.87 0
vt -5211.69 -7796.17 0
vt -7796.26 -0.032808 0
vt -5211.77 0.041339 0
vt -5211.69 0.459318 0
vt -5211.77 0.459318 0
vt 7795.87 -0.032808 0
vt 5210.4 0.025903 0
vt -5210.51 -7795.98 0
vt 7796.17 0.459318 0
vt -5211.28 -7795.97 0
vt -5210.89 -7795.97 0
vt -7795.98 0.459318 0
vt 5210.51 -0.032808 0
vt -7795.67 -4473.29 0
vt -7796.46 -4473.29 0
vt -7795.67 -4473.29 0
vt 7795.67 4472.11 0
vt 5210.1 0.491668 0
vt -7796.46 -4473.29 0
vt -5210.1 0.491668 0
vt -5211.28 -7796.16 0
vt -5211.69 -7795.96 0
vt 7796.17 0.041339 0
vt -7795.96 0.459318 0
vt -5211.69 0.041339 0
vt 7796.17 0.025903 0
vt 5210.51 0.025903 0
vt -5210.51 -7796.17 0
vt -5210.89 -7796.16 0
vt 5210.59 -7795.98 0
vt 5210.51 -7795.97 0
vt 5210.51 -7795.98 0
vt -7795.98 0.025903 0
vt -7796.17 0.025903 0
vt -5212.07 0.491668 0
vt 7796.46 4849.24 0
vt 7795.67 4849.24 0
vt 7796.46 4849.24 0
vt 5212.06 0.492002 0
vt -7795.67 -4850.71 0
vt -7796.46 -4850.71 0
vt -7795.67 -4850.71 0
vt 7795.96 0.041339 0
vt 7795.96 0.459318 0
vt -5211.77 -0.032808 0
vt -7795.96 0.041339 0
vt 5211.69 0.041339 0
vt 5211.77 -7796.17 0
vt 5211.69 -7795.96 0
vt 5211.69 -7796.17 0
vt 5210.51 -7796.17 0
vt 5210.4 -7795.98 0
vt 5210.4 -7796.17 0
vt -5210.51 0.025903 0
vt -5210.4 0.025903 0
vt 5210.89 -7795.97 0
vt 5210.89 -7796.16 0
vt -7796.17 0.459318 0
vt -5210.1 0.492002 0
vt 7795.67 4849.24 0
vt 5210.1 0.492002 0
vt -7796.46 -4850.71 0
vt -5212.06 0.492002 0
vt 5211.58 -7796.16 0
vt 5211.28 -7795.97 0
vt 5211.28 -7796.16 0
vt -5211.69 -0.032808 0
vt 5211.77 0.041339 0
vt 5211.77 -7795.96 0
vt 5210.59 -7796.16 0
vt 7796.46 5095.65 0
vt 7795.67 5095.64 0
vt 7796.46 5095.64 0
vt 5212.06 0.492126 0
vt -7795.67 -5097.36 0
vt -7796.46 -5097.36 0
vt -7795.67 -5097.36 0
vt -5210.1 0.492126 0
vt 5211.58 -7795.97 0
vt 7795.67 5095.65 0
vt 5210.1 0.492126 0
vt -7796.46 -5097.36 0
vt -5212.06 0.492126 0
vt 5212.06 -7796.46 0
vt 5210.1 -7795.67 0
vt 5210.1 -7796.46 0
vt 5212.06 -7795.67 0

# 70 vertex normals
vn -0.000985194 -0.000171445 -0
vn 0 0 0.001
vn -0.000998351 -5.74e-05 0
vn 0 0 -0.001
vn -0.000959052 -0.000283229 0
vn 0.000985194 -0.000171445 0
vn 0.000998351 -5.74e-05 0
vn -0.001 0 0
vn 0.000959052 -0.000283229 0
vn -0.000920271 -0.000391281 -0
vn 0.001 0 0
vn -0.000978012 0.000208551 0
vn -0.00095759 0.000288136 0
vn 0.000920271 -0.000391281 0
vn -0.000869362 -0.000494176 0
vn 0.000978012 0.000208551 0
vn 0.00095759 0.000288136 0
vn -0.000897534 0.000440946 0
vn 0.000869362 -0.000494176 0
vn -0.000804893 -0.000593419 0
vn 0.000897534 0.000440946 0
vn -0.000813282 0.000581869 0
vn 0.000804893 -0.000593419 0
vn -0.000510251 -0.000860026 -0
vn 0.000813282 0.000581869 0
vn -0.000707107 0.000707107 0
vn 0.000510251 -0.000860026 0
vn 0 -0.001 0
vn 0.000707107 0.000707107 0
vn -0.000581869 0.000813282 0
vn 0.000581869 0.000813282 0
vn -0.000440946 0.000897534 0
vn 0.000440946 0.000897534 0
vn 0 0.001 0
vn -0.000288136 0.00095759 0
vn 0.000288136 0.00095759 0
vn -0.000208551 0.000978012 0
vn 0.000208551 0.000978012 0
vn 0.000985194 0.000171445 0
vn 0.000998351 5.74e-05 0
vn 0.000959052 0.000283229 0
vn -0.000985194 0.000171445 0
vn -0.000998351 5.74e-05 0
vn -0.000959052 0.000283229 0
vn 0.000920271 0.000391281 0
vn 0.000978012 -0.000208551 0
vn 0.00095759 -0.000288136 0
vn -0.000920271 0.000391281 0
vn 0.000869362 0.000494176 0
vn -0.000978012 -0.000208551 -0
vn -0.00095759 -0.000288136 -0
vn 0.000897534 -0.000440946 0
vn -0.000869362 0.000494176 0
vn 0.000804893 0.000593419 0
vn -0.000897534 -0.000440946 -0
vn 0.000813282 -0.000581869 0
vn -0.000804893 0.000593419 0
vn 0.000510251 0.000860026 0
vn -0.000813282 -0.000581869 -0
vn 0.000707107 -0.000707107 0
vn -0.000510251 0.000860026 0
vn -0.000707107 -0.000707107 -0
vn 0.000581869 -0.000813282 0
vn -0.000581869 -0.000813282 -0
vn 0.000440946 -0.000897534 0
vn -0.000440946 -0.000897534 -0
vn 0.000288136 -0.00095759 0
vn -0.000288136 -0.00095759 -0
vn 0.000208551 -0.000978012 0
vn -0.000208551 -0.000978012 -0

# Mesh 'mesh1_mesh1-geometry' with 228 faces
g mesh1_mesh1-geometry
usemtl material_0_1_8
f  1/1/1 2/2/1 3/3/1
f  2/2/1 1/1/1 4/4/1
f  2/5/2 5/6/2 3/7/2
f  3/8/3 6/9/3 1/10/3
f  7/11/4 4/12/4 1/13/4
f  4/14/5 8/15/5 2/16/5
f  2/5/2 9/17/2 5/6/2
f  3/7/2 5/6/2 10/18/2
f  6/9/3 3/8/3 11/19/3
f  12/20/4 1/13/4 6/21/4
f  13/22/4 4/12/4 7/11/4
f  7/11/4 1/13/4 12/20/4
f  8/15/5 4/14/5 14/23/5
f  8/24/2 9/17/2 2/5/2
f  7/25/6 5/26/6 9/27/6
f  12/28/7 10/29/7 5/30/7
f  3/7/2 10/18/2 11/31/2
f  11/32/8 15/33/8 6/34/8
f  12/20/4 6/21/4 16/35/4
f  13/22/4 14/36/4 4/12/4
f  9/37/9 13/38/9 7/39/9
f  5/26/6 7/25/6 12/40/6
f  14/41/10 17/42/10 8/43/10
f  8/24/2 18/44/2 9/17/2
f  10/29/7 12/28/7 16/45/7
f  11/31/2 10/18/2 19/46/2
f  15/33/8 11/32/8 20/47/8
f  16/35/4 6/21/4 15/48/4
f  21/49/4 14/36/4 13/22/4
f  13/38/9 9/37/9 18/50/9
f  17/42/10 14/41/10 22/51/10
f  17/52/2 18/44/2 8/24/2
f  16/53/11 19/54/11 10/55/11
f  11/31/2 19/46/2 20/56/2
f  20/57/12 23/58/13 15/59/12
f  16/35/4 15/48/4 24/60/4
f  21/49/4 22/61/4 14/36/4
f  18/62/14 21/63/14 13/64/14
f  22/65/15 25/66/15 17/67/15
f  17/52/2 26/68/2 18/44/2
f  19/54/11 16/53/11 24/69/11
f  20/56/2 19/46/2 27/70/2
f  23/58/13 20/57/12 28/71/13
f  24/60/4 15/48/4 23/72/4
f  29/73/4 22/61/4 21/49/4
f  21/63/14 18/62/14 26/74/14
f  25/66/15 22/65/15 30/75/15
f  25/76/2 26/68/2 17/52/2
f  24/77/16 27/78/17 19/79/16
f  20/56/2 27/70/2 28/80/2
f  28/81/13 31/82/18 23/83/13
f  24/60/4 23/72/4 32/84/4
f  29/73/4 30/85/4 22/61/4
f  26/86/19 29/87/19 21/88/19
f  30/89/20 33/90/20 25/91/20
f  25/76/2 34/92/2 26/68/2
f  27/78/17 24/77/16 32/93/17
f  28/80/2 27/70/2 35/94/2
f  31/82/18 28/81/13 36/95/18
f  32/84/4 23/72/4 31/96/4
f  37/97/4 30/85/4 29/73/4
f  29/87/19 26/86/19 34/98/19
f  33/90/20 30/89/20 38/99/20
f  33/100/2 34/92/2 25/76/2
f  32/101/17 35/102/21 27/103/17
f  28/80/2 35/94/2 36/104/2
f  36/105/18 39/106/22 31/107/18
f  32/84/4 31/96/4 40/108/4
f  37/97/4 38/109/4 30/85/4
f  34/110/23 37/111/23 29/112/23
f  41/113/24 33/114/24 38/115/24
f  33/100/2 42/116/2 34/92/2
f  35/102/21 32/101/17 40/117/21
f  36/104/2 35/94/2 43/118/2
f  39/106/22 36/105/18 44/119/22
f  40/108/4 31/96/4 39/120/4
f  45/121/4 38/109/4 37/97/4
f  37/111/23 34/110/23 42/122/23
f  33/114/24 41/113/24 46/123/24
f  38/109/4 45/121/4 41/124/4
f  46/125/2 42/116/2 33/100/2
f  40/126/21 43/127/25 35/128/21
f  36/104/2 43/118/2 44/129/2
f  44/130/22 47/131/26 39/132/22
f  40/108/4 39/120/4 48/133/4
f  37/134/27 49/135/27 45/136/27
f  49/135/27 37/134/27 42/137/27
f  41/138/28 50/139/28 46/140/28
f  50/139/28 41/138/28 45/141/28
f  42/116/2 46/125/2 49/142/2
f  43/127/25 40/126/21 48/143/25
f  44/129/2 43/118/2 51/144/2
f  47/131/26 44/130/22 52/145/26
f  48/133/4 39/120/4 47/146/4
f  49/147/28 53/148/28 45/141/28
f  54/149/28 46/140/28 50/139/28
f  50/139/28 45/141/28 55/150/28
f  46/140/28 54/149/28 49/147/28
f  48/151/25 51/152/29 43/153/25
f  44/129/2 51/144/2 52/154/2
f  56/155/30 47/156/26 52/157/26
f  48/133/4 47/146/4 57/158/4
f  49/147/28 58/159/28 53/148/28
f  59/160/28 45/141/28 53/148/28
f  54/149/28 50/139/28 60/161/28
f  55/150/28 45/141/28 61/162/28
f  62/163/4 50/164/4 55/165/4
f  49/147/28 54/149/28 63/166/28
f  51/152/29 48/151/25 57/167/29
f  52/154/2 51/144/2 64/168/2
f  47/156/26 56/155/30 65/169/30
f  52/154/2 64/168/2 56/170/2
f  57/158/4 47/146/4 65/171/4
f  49/147/28 66/172/28 58/159/28
f  67/173/2 53/174/2 58/175/2
f  68/176/28 45/141/28 59/160/28
f  59/177/11 53/178/11 69/179/11
f  50/180/8 70/181/8 60/182/8
f  54/149/28 60/161/28 71/183/28
f  61/162/28 45/141/28 72/184/28
f  55/150/28 61/162/28 73/185/28
f  50/164/4 62/163/4 74/186/4
f  73/187/11 62/188/11 55/189/11
f  75/190/2 63/191/2 54/192/2
f  49/147/28 63/166/28 76/193/28
f  77/194/31 51/195/29 57/196/29
f  51/195/29 77/194/31 64/197/31
f  78/198/32 65/199/30 56/200/30
f  56/170/2 64/168/2 79/201/2
f  57/158/4 65/171/4 77/202/4
f  49/147/28 76/193/28 66/172/28
f  58/159/28 66/172/28 80/203/28
f  53/174/2 67/173/2 81/204/2
f  82/205/8 67/206/8 58/207/8
f  83/208/28 45/141/28 68/176/28
f  82/209/28 68/176/28 59/160/28
f  81/210/11 69/179/11 53/178/11
f  69/211/4 82/212/4 59/213/4
f  74/214/8 70/181/8 50/180/8
f  70/215/2 84/191/2 60/192/2
f  84/216/28 71/183/28 60/161/28
f  71/217/8 75/206/8 54/207/8
f  72/184/28 45/141/28 85/218/28
f  72/184/28 86/219/28 61/162/28
f  73/185/28 61/162/28 84/216/28
f  62/150/28 75/149/28 74/139/28
f  84/220/11 62/188/11 73/187/11
f  63/191/2 75/190/2 87/221/2
f  76/193/28 63/166/28 61/162/28
f  88/222/33 64/223/31 77/224/31
f  65/199/30 78/198/32 89/225/32
f  56/170/2 79/201/2 78/226/2
f  64/223/31 88/222/33 79/227/33
f  77/202/4 65/171/4 89/228/4
f  76/193/28 72/184/28 66/172/28
f  90/229/28 80/203/28 66/172/28
f  58/159/28 80/203/28 91/230/28
f  67/159/28 92/208/28 81/148/28
f  67/206/8 82/205/8 93/231/8
f  58/159/28 91/230/28 82/209/28
f  80/203/28 45/141/28 83/208/28
f  68/232/11 92/188/11 83/189/11
f  68/176/28 82/209/28 91/230/28
f  69/179/11 81/210/11 92/188/11
f  82/212/4 69/211/4 93/233/4
f  74/214/8 94/234/8 70/181/8
f  84/191/2 70/215/2 95/235/2
f  71/183/28 84/216/28 96/236/28
f  75/206/8 71/217/8 94/234/8
f  85/218/28 45/141/28 80/203/28
f  66/172/28 72/184/28 85/218/28
f  86/219/28 72/184/28 97/237/28
f  76/193/28 61/162/28 86/219/28
f  84/216/28 61/162/28 96/236/28
f  98/238/34 73/239/34 84/240/34
f  75/149/28 62/150/28 87/166/28
f  75/206/8 94/234/8 74/214/8
f  95/241/11 62/188/11 84/220/11
f  87/210/11 99/242/11 63/178/11
f  96/236/28 61/162/28 63/166/28
f  77/202/4 89/228/4 88/243/4
f  100/244/35 89/245/32 78/246/32
f  78/226/2 79/201/2 101/247/2
f  102/248/36 79/249/33 88/250/33
f  97/237/28 72/184/28 76/193/28
f  85/218/28 80/203/28 90/229/28
f  66/172/28 85/218/28 90/229/28
f  80/180/8 103/251/8 91/252/8
f  92/208/28 67/159/28 104/203/28
f  67/206/8 93/231/8 104/214/8
f  92/253/4 80/212/4 83/213/4
f  105/254/11 92/188/11 68/232/11
f  103/255/2 68/174/2 91/175/2
f  69/179/11 92/188/11 105/254/11
f  69/256/34 103/257/34 93/258/34
f  99/259/34 70/260/34 94/261/34
f  70/260/34 99/259/34 95/240/34
f  99/262/4 71/164/4 96/165/4
f  71/164/4 99/262/4 94/263/4
f  76/193/28 86/219/28 97/237/28
f  86/264/34 98/238/34 97/265/34
f  73/239/34 98/238/34 86/264/34
f  99/242/11 87/210/11 62/188/11
f  99/242/11 62/188/11 95/241/11
f  96/266/11 63/178/11 99/242/11
f  88/243/4 89/228/4 106/267/4
f  89/245/32 100/244/35 106/268/35
f  78/226/2 101/247/2 100/269/2
f  79/249/33 102/248/36 101/270/36
f  88/243/4 106/267/4 102/271/4
f  107/272/34 85/273/34 90/274/34
f  104/214/8 103/251/8 80/180/8
f  80/212/4 92/253/4 104/275/4
f  104/214/8 93/231/8 103/251/8
f  68/174/2 103/255/2 105/276/2
f  103/257/34 69/256/34 105/277/34
f  97/265/34 98/238/34 108/278/34
f  109/279/37 106/280/35 100/281/35
f  100/269/2 101/247/2 110/282/2
f  111/283/38 101/284/36 102/285/36
f  102/271/4 106/267/4 112/286/4
f  85/273/34 107/272/34 113/287/34
f  106/280/35 109/279/37 112/288/37
f  100/269/2 110/282/2 109/289/2
f  101/284/36 111/283/38 110/290/38
f  102/271/4 112/286/4 111/291/4
f  110/292/34 112/293/34 109/294/34
f  112/293/34 110/292/34 111/295/34

# Mesh 'mesh1_mesh1-geometry' with 228 faces
g mesh1_mesh1-geometry
usemtl material_1_24
f  3//39 2//39 1//39
f  4//39 1//39 2//39
f  3//4 5//4 2//4
f  1//40 6//40 3//40
f  1//2 4//2 7//2
f  2//41 8//41 4//41
f  5//4 9//4 2//4
f  10//4 5//4 3//4
f  11//40 3//40 6//40
f  6//2 1//2 12//2
f  7//2 4//2 13//2
f  12//2 1//2 7//2
f  14//41 4//41 8//41
f  2//4 9//4 8//4
f  9//42 5//42 7//42
f  5//43 10//43 12//43
f  11//4 10//4 3//4
f  6//11 15//11 11//11
f  16//2 6//2 12//2
f  4//2 14//2 13//2
f  7//44 13//44 9//44
f  12//42 7//42 5//42
f  8//45 17//45 14//45
f  9//4 18//4 8//4
f  16//43 12//43 10//43
f  19//4 10//4 11//4
f  20//11 11//11 15//11
f  15//2 6//2 16//2
f  13//2 14//2 21//2
f  18//44 9//44 13//44
f  22//45 14//45 17//45
f  8//4 18//4 17//4
f  10//8 19//8 16//8
f  20//4 19//4 11//4
f  15//46 23//47 20//46
f  24//2 15//2 16//2
f  14//2 22//2 21//2
f  13//48 21//48 18//48
f  17//49 25//49 22//49
f  18//4 26//4 17//4
f  24//8 16//8 19//8
f  27//4 19//4 20//4
f  28//47 20//46 23//47
f  23//2 15//2 24//2
f  21//2 22//2 29//2
f  26//48 18//48 21//48
f  30//49 22//49 25//49
f  17//4 26//4 25//4
f  19//50 27//51 24//50
f  28//4 27//4 20//4
f  23//47 31//52 28//47
f  32//2 23//2 24//2
f  22//2 30//2 29//2
f  21//53 29//53 26//53
f  25//54 33//54 30//54
f  26//4 34//4 25//4
f  32//51 24//50 27//51
f  35//4 27//4 28//4
f  36//52 28//47 31//52
f  31//2 23//2 32//2
f  29//2 30//2 37//2
f  34//53 26//53 29//53
f  38//54 30//54 33//54
f  25//4 34//4 33//4
f  27//51 35//55 32//51
f  36//4 35//4 28//4
f  31//52 39//56 36//52
f  40//2 31//2 32//2
f  30//2 38//2 37//2
f  29//57 37//57 34//57
f  38//58 33//58 41//58
f  34//4 42//4 33//4
f  40//55 32//51 35//55
f  43//4 35//4 36//4
f  44//56 36//52 39//56
f  39//2 31//2 40//2
f  37//2 38//2 45//2
f  42//57 34//57 37//57
f  46//58 41//58 33//58
f  41//2 45//2 38//2
f  33//4 42//4 46//4
f  35//55 43//59 40//55
f  44//4 43//4 36//4
f  39//56 47//60 44//56
f  48//2 39//2 40//2
f  45//61 49//61 37//61
f  42//61 37//61 49//61
f  46//34 50//34 41//34
f  45//34 41//34 50//34
f  49//4 46//4 42//4
f  48//59 40//55 43//59
f  51//4 43//4 44//4
f  52//60 44//56 47//60
f  47//2 39//2 48//2
f  45//34 53//34 49//34
f  50//34 46//34 54//34
f  55//34 45//34 50//34
f  49//34 54//34 46//34
f  43//59 51//62 48//59
f  52//4 51//4 44//4
f  52//60 47//60 56//63
f  57//2 47//2 48//2
f  53//34 58//34 49//34
f  53//34 45//34 59//34
f  60//34 50//34 54//34
f  61//34 45//34 55//34
f  55//2 50//2 62//2
f  63//34 54//34 49//34
f  57//62 48//59 51//62
f  64//4 51//4 52//4
f  65//63 56//63 47//60
f  56//4 64//4 52//4
f  65//2 47//2 57//2
f  58//34 66//34 49//34
f  58//4 53//4 67//4
f  59//34 45//34 68//34
f  69//8 53//8 59//8
f  60//11 70//11 50//11
f  71//34 60//34 54//34
f  72//34 45//34 61//34
f  73//34 61//34 55//34
f  74//2 62//2 50//2
f  55//8 62//8 73//8
f  54//4 63//4 75//4
f  76//34 63//34 49//34
f  57//62 51//62 77//64
f  64//64 77//64 51//62
f  56//63 65//63 78//65
f  79//4 64//4 56//4
f  77//2 65//2 57//2
f  66//34 76//34 49//34
f  80//34 66//34 58//34
f  81//4 67//4 53//4
f  58//11 67//11 82//11
f  68//34 45//34 83//34
f  59//34 68//34 82//34
f  53//8 69//8 81//8
f  59//2 82//2 69//2
f  50//11 70//11 74//11
f  60//4 84//4 70//4
f  60//34 71//34 84//34
f  54//11 75//11 71//11
f  85//34 45//34 72//34
f  61//34 86//34 72//34
f  84//34 61//34 73//34
f  74//34 75//34 62//34
f  73//8 62//8 84//8
f  87//4 75//4 63//4
f  61//34 63//34 76//34
f  77//64 64//64 88//66
f  89//65 78//65 65//63
f  78//4 79//4 56//4
f  79//66 88//66 64//64
f  89//2 65//2 77//2
f  66//34 72//34 76//34
f  66//34 80//34 90//34
f  91//34 80//34 58//34
f  81//34 92//34 67//34
f  93//11 82//11 67//11
f  82//34 91//34 58//34
f  83//34 45//34 80//34
f  83//8 92//8 68//8
f  91//34 82//34 68//34
f  92//8 81//8 69//8
f  93//2 69//2 82//2
f  70//11 94//11 74//11
f  95//4 70//4 84//4
f  96//34 84//34 71//34
f  94//11 71//11 75//11
f  80//34 45//34 85//34
f  85//34 72//34 66//34
f  97//34 72//34 86//34
f  86//34 61//34 76//34
f  96//34 61//34 84//34
f  84//28 73//28 98//28
f  87//34 62//34 75//34
f  74//11 94//11 75//11
f  84//8 62//8 95//8
f  63//8 99//8 87//8
f  63//34 61//34 96//34
f  88//2 89//2 77//2
f  78//65 89//65 100//67
f  101//4 79//4 78//4
f  88//66 79//66 102//68
f  76//34 72//34 97//34
f  90//34 80//34 85//34
f  90//34 85//34 66//34
f  91//11 103//11 80//11
f  104//34 67//34 92//34
f  104//11 93//11 67//11
f  83//2 80//2 92//2
f  68//8 92//8 105//8
f  91//4 68//4 103//4
f  105//8 92//8 69//8
f  93//28 103//28 69//28
f  94//28 70//28 99//28
f  95//28 99//28 70//28
f  96//2 71//2 99//2
f  94//2 99//2 71//2
f  97//34 86//34 76//34
f  97//28 98//28 86//28
f  86//28 98//28 73//28
f  62//8 87//8 99//8
f  95//8 62//8 99//8
f  99//8 63//8 96//8
f  106//2 89//2 88//2
f  106//67 100//67 89//65
f  100//4 101//4 78//4
f  101//68 102//68 79//66
f  102//2 106//2 88//2
f  90//28 85//28 107//28
f  80//11 103//11 104//11
f  104//2 92//2 80//2
f  103//11 93//11 104//11
f  105//4 103//4 68//4
f  105//28 69//28 103//28
f  108//28 98//28 97//28
f  100//67 106//67 109//69
f  110//4 101//4 100//4
f  102//68 101//68 111//70
f  112//2 106//2 102//2
f  113//28 107//28 85//28
f  112//69 109//69 106//67
f  109//4 110//4 100//4
f  110//70 111//70 101//68
f  111//2 112//2 102//2
f  109//28 112//28 110//28
f  111//28 110//28 112//28

# Mesh 'mesh2_mesh2-geometry' with 1 faces
g mesh2_mesh2-geometry
usemtl material_1_0
l  114 115

# Mesh 'mesh3_mesh3-geometry' with 1 faces
g mesh3_mesh3-geometry
usemtl material_1_0
l  116 117

# Mesh 'mesh4_mesh4-geometry' with 1 faces
g mesh4_mesh4-geometry
usemtl material_1_0
l  118 108

